<?xml version="1.0" encoding="UTF-8" standalone="no"?>
<!DOCTYPE svg PUBLIC "-//W3C//DTD SVG 1.1//EN" "http://www.w3.org/Graphics/SVG/1.1/DTD/svg11.dtd">
<svg version="1.1" xmlns="http://www.w3.org/2000/svg" xmlns:xlink="http://www.w3.org/1999/xlink" preserveAspectRatio="xMidYMid meet" viewBox="119 188.41195455140718 342.26384817005624 224.58804544859282" width="338.26" height="220.59"><defs><path d="M353.85 189.59L355.13 189.72L356.4 189.89L357.67 190.11L358.93 190.36L360.19 190.65L361.44 190.97L362.69 191.34L363.92 191.74L365.14 192.19L366.36 192.67L367.56 193.19L368.74 193.75L369.92 194.35L371.08 194.98L372.22 195.66L373.35 196.37L374.46 197.12L437.22 241.05L437.81 241.48L438.39 241.92L438.96 242.37L439.52 242.84L440.07 243.32L440.6 243.81L441.12 244.31L441.62 244.82L442.12 245.34L442.59 245.88L443.06 246.42L443.51 246.98L443.95 247.55L444.37 248.12L444.78 248.71L445.18 249.3L445.56 249.9L445.92 250.52L446.28 251.14L446.61 251.76L446.93 252.4L447.24 253.04L447.53 253.69L447.81 254.35L448.07 255.02L448.31 255.69L448.54 256.36L448.75 257.05L448.95 257.74L449.13 258.43L449.29 259.13L449.44 259.83L449.57 260.54L449.68 261.25L449.78 261.97L449.86 262.69L449.92 263.41L449.96 264.14L449.99 264.87L450 265.6L450 334.4L449.99 335.13L449.96 335.85L449.92 336.58L449.86 337.3L449.77 338.02L449.68 338.73L449.56 339.44L449.43 340.14L449.28 340.84L449.11 341.54L448.93 342.23L448.73 342.91L448.51 343.59L448.28 344.26L448.03 344.93L447.77 345.59L447.49 346.24L447.19 346.89L446.88 347.52L446.55 348.15L446.21 348.78L445.85 349.39L445.48 349.99L445.09 350.59L444.69 351.17L444.27 351.75L443.84 352.32L443.4 352.87L442.94 353.42L442.47 353.95L441.98 354.48L441.48 354.99L440.97 355.49L440.44 355.98L439.9 356.46L439.35 356.92L438.79 357.38L438.21 357.82L437.62 358.24L437.02 358.65L432.98 361.35L432.51 361.68L432.06 362.03L431.63 362.4L431.22 362.78L430.84 363.18L430.48 363.59L430.14 364.02L429.82 364.46L429.53 364.91L429.26 365.38L429.01 365.85L428.79 366.33L428.58 366.82L428.41 367.32L428.25 367.82L428.12 368.33L428.01 368.85L427.92 369.36L427.86 369.89L427.82 370.41L427.81 370.93L427.81 371.46L427.85 371.98L427.9 372.51L427.98 373.03L428.08 373.54L428.21 374.06L428.36 374.57L428.53 375.07L428.72 375.56L428.95 376.05L429.19 376.53L429.46 377L429.75 377.46L430.07 377.91L430.41 378.35L430.77 378.77L431.16 379.18L431.57 379.58L432.01 379.96L456.22 400.04L456.51 400.3L456.78 400.57L457.02 400.85L457.24 401.14L457.44 401.43L457.62 401.74L457.77 402.05L457.91 402.37L458.02 402.69L458.11 403.02L458.18 403.34L458.23 403.67L458.26 404.01L458.26 404.34L458.25 404.67L458.22 405L458.17 405.33L458.11 405.65L458.02 405.97L457.92 406.28L457.8 406.59L457.66 406.89L457.51 407.18L457.33 407.46L457.15 407.74L456.94 408L456.73 408.25L456.49 408.48L456.24 408.71L455.98 408.92L455.7 409.11L455.41 409.29L455.11 409.45L454.79 409.59L454.46 409.71L454.12 409.81L453.76 409.89L453.39 409.95L453.01 409.99L452.62 410L435.6 410L434.84 409.99L434.07 409.98L433.31 409.95L432.55 409.92L431.78 409.87L431.02 409.82L430.26 409.75L429.51 409.67L428.75 409.59L427.99 409.49L427.24 409.38L426.49 409.27L425.74 409.14L424.99 409L424.25 408.85L423.5 408.7L422.76 408.53L422.03 408.36L421.29 408.17L420.56 407.97L419.83 407.77L419.1 407.55L418.37 407.33L417.65 407.09L416.93 406.85L416.22 406.59L415.5 406.33L414.79 406.06L414.09 405.77L413.39 405.48L412.69 405.18L411.99 404.87L411.3 404.55L410.61 404.22L409.93 403.88L409.25 403.53L408.58 403.17L407.91 402.8L407.24 402.42L406.58 402.04L403.42 400.16L402.8 399.81L402.18 399.47L401.55 399.16L400.91 398.86L400.26 398.59L399.62 398.33L398.96 398.09L398.3 397.88L397.64 397.68L396.97 397.5L396.3 397.34L395.62 397.2L394.95 397.08L394.27 396.98L393.58 396.9L392.9 396.84L392.22 396.79L391.53 396.77L390.85 396.76L390.16 396.78L389.48 396.81L388.8 396.87L388.12 396.94L387.44 397.03L386.76 397.14L386.09 397.27L385.42 397.42L384.75 397.59L384.09 397.78L383.43 397.99L382.78 398.21L382.13 398.46L381.49 398.72L380.85 399L380.22 399.31L379.6 399.63L378.98 399.97L378.38 400.33L377.78 400.71L377.19 401.1L375.95 401.93L374.7 402.72L373.43 403.47L372.14 404.17L370.83 404.83L369.51 405.44L368.18 406.02L366.83 406.55L365.47 407.04L364.1 407.48L362.72 407.89L361.33 408.25L359.94 408.56L358.53 408.84L357.12 409.07L355.71 409.26L354.29 409.41L352.87 409.51L351.44 409.57L350.02 409.59L348.59 409.57L347.17 409.5L345.75 409.39L344.33 409.24L342.91 409.05L341.51 408.81L340.1 408.53L338.71 408.21L337.32 407.84L335.94 407.44L334.57 406.99L333.21 406.49L331.87 405.96L330.54 405.38L329.22 404.76L327.92 404.09L326.63 403.39L325.36 402.64L324.11 401.85L322.88 401.01L262.78 358.95L262.19 358.52L261.61 358.08L261.04 357.63L260.48 357.16L259.93 356.68L259.4 356.19L258.88 355.69L258.38 355.18L257.88 354.66L257.41 354.12L256.94 353.58L256.49 353.02L256.05 352.45L255.63 351.88L255.22 351.29L254.82 350.7L254.44 350.1L254.08 349.48L253.72 348.86L253.39 348.24L253.07 347.6L252.76 346.96L252.47 346.31L252.19 345.65L251.93 344.98L251.69 344.31L251.46 343.64L251.25 342.95L251.05 342.26L250.87 341.57L250.71 340.87L250.56 340.17L250.43 339.46L250.32 338.75L250.22 338.03L250.14 337.31L250.08 336.59L250.04 335.86L250.01 335.13L250 334.4L250 265.6L250.01 264.87L250.04 264.14L250.08 263.41L250.14 262.69L250.22 261.97L250.32 261.25L250.43 260.54L250.56 259.83L250.71 259.13L250.87 258.43L251.05 257.74L251.25 257.05L251.46 256.36L251.69 255.69L251.93 255.02L252.19 254.35L252.47 253.69L252.76 253.04L253.07 252.4L253.39 251.76L253.72 251.14L254.08 250.52L254.44 249.9L254.82 249.3L255.22 248.71L255.63 248.12L256.05 247.55L256.49 246.98L256.94 246.42L257.41 245.88L257.88 245.34L258.38 244.82L258.88 244.31L259.4 243.81L259.93 243.32L260.48 242.84L261.04 242.37L261.61 241.92L262.19 241.48L262.78 241.05L325.54 197.12L326.65 196.37L327.78 195.66L328.92 194.98L330.08 194.35L331.26 193.75L332.44 193.19L333.64 192.67L334.86 192.19L336.08 191.74L337.31 191.34L338.56 190.97L339.81 190.65L341.07 190.36L342.33 190.11L343.6 189.89L344.87 189.72L346.15 189.59L347.43 189.49L348.72 189.43L350 189.41L351.28 189.43L352.57 189.49L352.57 189.49L353.85 189.59ZM347.29 245.73L346.39 245.82L345.49 245.92L344.6 246.06L343.7 246.21L342.81 246.39L341.93 246.6L341.05 246.83L340.17 247.08L339.3 247.36L338.43 247.66L337.58 247.99L336.73 248.33L335.88 248.71L335.05 249.11L334.22 249.53L333.4 249.97L332.59 250.44L310.37 263.78L309.89 264.08L309.42 264.38L308.96 264.7L308.51 265.03L308.07 265.37L307.65 265.72L307.23 266.08L306.82 266.45L306.42 266.83L306.03 267.21L305.66 267.61L305.29 268.02L304.94 268.43L304.59 268.86L304.26 269.29L303.94 269.73L303.63 270.18L303.33 270.64L303.05 271.1L302.77 271.57L302.51 272.05L302.26 272.53L302.02 273.02L301.8 273.52L301.58 274.02L301.38 274.53L301.2 275.04L301.02 275.56L300.86 276.08L300.72 276.61L300.58 277.14L300.46 277.68L300.35 278.22L300.26 278.76L300.18 279.31L300.12 279.86L300.07 280.41L300.03 280.97L300.01 281.53L300 282.09L300 317.91L300.01 318.47L300.03 319.03L300.07 319.59L300.12 320.14L300.18 320.69L300.26 321.24L300.35 321.78L300.46 322.32L300.58 322.86L300.72 323.39L300.86 323.92L301.02 324.44L301.2 324.96L301.38 325.47L301.58 325.98L301.8 326.48L302.02 326.98L302.26 327.47L302.51 327.95L302.77 328.43L303.05 328.9L303.33 329.36L303.63 329.82L303.94 330.27L304.26 330.71L304.59 331.14L304.94 331.57L305.29 331.98L305.66 332.39L306.03 332.79L306.42 333.17L306.82 333.55L307.23 333.92L307.65 334.28L308.07 334.63L308.51 334.97L308.96 335.3L309.42 335.62L309.89 335.92L310.37 336.22L334.77 350.86L335.48 351.27L336.19 351.66L336.92 352.03L337.65 352.38L338.38 352.71L339.13 353.01L339.88 353.3L340.64 353.56L341.4 353.8L342.17 354.03L342.94 354.23L343.71 354.4L344.49 354.56L345.27 354.7L346.06 354.82L346.84 354.91L347.63 354.98L348.42 355.04L349.21 355.07L350 355.08L350.79 355.07L351.58 355.04L352.37 354.98L353.16 354.91L353.94 354.82L354.73 354.7L355.51 354.56L356.29 354.4L357.06 354.23L357.83 354.03L358.6 353.8L359.36 353.56L360.12 353.3L360.87 353.01L361.62 352.71L362.35 352.38L363.08 352.03L363.81 351.66L364.52 351.27L365.23 350.86L389.63 336.22L390.11 335.92L390.58 335.62L391.04 335.3L391.49 334.97L391.93 334.63L392.35 334.28L392.77 333.92L393.18 333.55L393.58 333.17L393.97 332.79L394.34 332.39L394.71 331.98L395.06 331.57L395.41 331.14L395.74 330.71L396.06 330.27L396.37 329.82L396.67 329.36L396.95 328.9L397.23 328.43L397.49 327.95L397.74 327.47L397.98 326.98L398.2 326.48L398.42 325.98L398.62 325.47L398.8 324.96L398.98 324.44L399.14 323.92L399.28 323.39L399.42 322.86L399.54 322.32L399.65 321.78L399.74 321.24L399.82 320.69L399.88 320.14L399.93 319.59L399.97 319.03L399.99 318.47L400 317.91L400 282.09L399.99 281.53L399.97 280.97L399.93 280.41L399.88 279.86L399.82 279.31L399.74 278.76L399.65 278.22L399.54 277.68L399.42 277.14L399.28 276.61L399.14 276.08L398.98 275.56L398.8 275.04L398.62 274.53L398.42 274.02L398.2 273.52L397.98 273.02L397.74 272.53L397.49 272.05L397.23 271.57L396.95 271.1L396.67 270.64L396.37 270.18L396.06 269.73L395.74 269.29L395.41 268.86L395.06 268.43L394.71 268.02L394.34 267.61L393.97 267.21L393.58 266.83L393.18 266.45L392.77 266.08L392.35 265.72L391.93 265.37L391.49 265.03L391.04 264.7L390.58 264.38L390.11 264.08L389.63 263.78L367.41 250.44L366.6 249.97L365.78 249.53L364.95 249.11L364.12 248.71L363.27 248.33L362.42 247.99L361.57 247.66L360.7 247.36L359.83 247.08L358.95 246.83L358.07 246.6L357.19 246.39L356.3 246.21L355.4 246.06L354.51 245.92L353.61 245.82L352.71 245.73L351.81 245.67L350.9 245.63L350 245.62L349.1 245.63L348.19 245.67L348.19 245.67L347.29 245.73Z" id="c43rw9hpNV"></path><path d="M120 290C120.76 289.43 121.23 289.07 121.42 288.92C158.71 260.65 203.34 243.67 250 240C250 240 250 240 250 240L320 190C320 190 320 190 320 190C244.15 190 172.42 224.48 125.04 283.7C124.37 284.54 122.69 286.64 120 290Z" id="h3WvrE1Ovl"></path><path d="M120 310C120.76 310.57 121.23 310.93 121.42 311.08C158.71 339.35 203.34 356.33 250 360C250 360 250 360 250 360L320 410C320 410 320 410 320 410C244.15 410 172.42 375.52 125.04 316.3C124.37 315.46 122.69 313.36 120 310Z" id="ayVtJSkql"></path></defs><g><g><use xlink:href="#c43rw9hpNV" opacity="1" fill="#2471A3" fill-opacity="1"></use><g><use xlink:href="#c43rw9hpNV" opacity="1" fill-opacity="0" stroke="#2471A3" stroke-width="1" stroke-opacity="1"></use></g></g><g><use xlink:href="#h3WvrE1Ovl" opacity="1" fill="#2471A3" fill-opacity="1"></use><g><use xlink:href="#h3WvrE1Ovl" opacity="1" fill-opacity="0" stroke="#2471A3" stroke-width="1" stroke-opacity="1"></use></g></g><g><use xlink:href="#ayVtJSkql" opacity="1" fill="#2471A3" fill-opacity="1"></use><g><use xlink:href="#ayVtJSkql" opacity="1" fill-opacity="0" stroke="#2471A3" stroke-width="1" stroke-opacity="1"></use></g></g></g></svg>